<?xml version="1.0" standalone="no"?>
<!DOCTYPE svg PUBLIC "-//W3C//DTD SVG 20010904//EN"
 "http://www.w3.org/TR/2001/REC-SVG-20010904/DTD/svg10.dtd">
<svg version="1.0" xmlns="http://www.w3.org/2000/svg"
 width="500.000000pt" height="500.000000pt" viewBox="0 0 500.000000 500.000000"
 preserveAspectRatio="xMidYMid meet">
<metadata>
Created by potrace 1.14, written by Peter Selinger 2001-2017
</metadata>
<g transform="translate(0.000000,500.000000) scale(0.100000,-0.100000)"
fill="#000000" stroke="none">
<path d="M2321 4908 c-774 -58 -1487 -559 -1808 -1272 -87 -194 -136 -356
-170 -561 -22 -134 -25 -546 -5 -663 l12 -72 -82 -103 c-182 -224 -248 -388
-219 -542 35 -187 187 -342 412 -421 98 -34 254 -37 340 -6 l56 20 63 -63 c39
-40 59 -68 54 -76 -5 -8 -3 -9 5 -4 16 9 60 -31 57 -53 -2 -9 -11 -18 -22 -20
-30 -5 -65 -25 -55 -32 5 -3 12 -19 15 -35 6 -32 -11 -50 -30 -34 -9 7 -16 4
-24 -11 -14 -26 -5 -39 13 -20 9 10 9 11 0 6 -9 -5 -11 -2 -7 9 4 9 7 15 8 13
1 -2 10 -14 21 -28 19 -24 19 -24 1 -10 -18 14 -19 13 -13 -2 3 -10 2 -20 -3
-23 -17 -11 -11 -27 8 -21 14 5 13 3 -3 -9 -16 -13 -17 -19 -8 -34 8 -12 8
-22 1 -29 -6 -6 -6 -12 1 -16 14 -9 14 -26 0 -26 -5 0 -7 5 -3 12 4 7 3 8 -5
4 -6 -4 -20 -2 -29 5 -9 7 -4 0 11 -15 24 -24 30 -26 45 -14 15 12 16 11 3 -5
-8 -11 -21 -15 -32 -12 -11 4 -19 2 -19 -5 0 -6 4 -8 10 -5 5 3 10 -1 10 -9 0
-9 4 -16 9 -16 4 0 8 -18 7 -39 -1 -22 2 -37 7 -34 4 3 6 11 3 19 -3 8 0 14 5
14 7 0 9 -11 7 -24 -3 -17 -1 -23 8 -19 7 2 10 12 7 21 -4 14 -3 15 6 2 7 -11
6 -19 -6 -32 -9 -10 -13 -21 -10 -25 4 -3 7 -2 7 4 0 6 7 13 15 17 8 3 14 0
12 -7 -1 -7 5 -11 13 -9 12 3 12 1 3 -9 -16 -16 -5 -39 20 -39 20 0 20 0 1
-22 -10 -13 -12 -18 -4 -12 14 11 55 16 45 6 -8 -8 15 -31 28 -28 7 1 9 1 4
-1 -14 -8 4 -22 21 -17 13 5 14 4 3 -4 -9 -7 -10 -12 -2 -16 6 -4 11 -12 11
-19 0 -6 -13 4 -30 23 -16 19 -29 30 -30 24 0 -7 7 -15 16 -18 9 -4 14 -9 11
-13 -10 -9 25 -32 40 -26 7 3 10 10 6 16 -3 6 -1 7 6 3 9 -6 9 -11 1 -21 -8
-9 -7 -13 2 -12 34 1 48 -4 48 -19 0 -14 -1 -14 -16 0 -20 20 -25 20 -17 -1 5
-12 3 -14 -7 -8 -8 5 -11 4 -6 -3 4 -6 13 -9 20 -6 8 3 17 0 21 -5 3 -6 11 -8
17 -5 8 5 9 1 4 -12 -5 -14 -4 -16 5 -7 14 14 2 36 -14 27 -7 -4 -8 -3 -4 1
12 13 37 15 34 2 -1 -6 4 -11 11 -12 12 0 15 -16 5 -25 -4 -3 -3 1 2 9 5 9 4
12 -3 7 -6 -4 -8 -14 -5 -22 3 -10 8 -12 12 -5 8 12 24 3 38 -23 9 -16 11 -17
16 -2 4 10 3 15 -3 11 -6 -3 -10 -1 -10 4 0 6 7 11 15 11 8 0 15 -9 15 -20 0
-14 7 -20 21 -20 13 0 18 4 13 12 -4 7 6 2 23 -10 17 -12 34 -18 38 -14 5 4 5
1 1 -6 -5 -9 -12 -10 -20 -3 -8 7 -17 6 -26 -1 -12 -8 -12 -9 3 -4 9 3 17 1
17 -5 0 -5 6 -9 13 -8 35 4 49 -2 43 -18 -5 -16 -5 -16 8 0 11 15 19 16 34 8
11 -6 23 -7 27 -3 5 4 5 1 1 -6 -5 -9 -12 -9 -26 -2 -16 8 -18 7 -14 -4 3 -9
19 -13 45 -12 21 0 39 -3 39 -7 0 -5 5 -5 12 -1 7 5 8 3 2 -7 -12 -20 -14 -40
-3 -33 5 3 7 10 4 15 -4 5 1 9 10 9 10 0 13 5 9 12 -4 7 -3 8 4 4 6 -4 8 -14
5 -23 -4 -10 -2 -14 4 -10 6 4 14 1 17 -5 3 -7 3 -2 0 12 -4 19 -3 22 5 10 6
-8 11 -11 11 -6 0 6 9 0 20 -12 12 -12 28 -22 38 -21 13 0 11 3 -5 9 -13 5
-23 12 -23 14 0 7 29 -4 70 -28 33 -19 34 -19 20 -1 -8 10 -10 16 -4 12 6 -3
23 -8 39 -11 15 -3 33 -11 39 -17 8 -9 8 -10 -1 -5 -6 3 -14 2 -17 -3 -4 -5 1
-8 10 -7 8 1 20 9 25 17 7 12 9 12 9 -1 0 -9 -3 -20 -7 -26 -5 -5 0 -1 10 9 9
11 17 14 17 7 0 -8 13 -10 39 -7 33 3 38 2 33 -12 -5 -14 -3 -14 11 -2 20 16
23 2 5 -19 -9 -10 -6 -9 7 1 11 9 27 20 35 24 13 8 13 7 0 -10 -14 -17 -13
-18 5 -8 11 5 26 8 33 7 6 -1 17 -2 23 -3 5 0 7 -7 3 -13 -5 -9 -2 -9 9 1 11
9 17 10 17 2 0 -6 5 -11 11 -11 5 0 8 3 6 8 -3 4 8 7 23 7 16 1 27 -2 24 -6
-7 -12 20 -17 39 -7 12 6 17 5 17 -7 0 -8 4 -15 9 -15 5 0 7 10 4 22 -4 22 -3
22 11 -2 12 -20 15 -21 16 -7 0 10 5 15 10 12 6 -4 8 -10 5 -15 -3 -4 5 -6 17
-2 16 4 19 2 13 -9 -5 -8 -4 -11 1 -6 5 5 9 14 9 20 0 22 56 15 65 -8 9 -20 9
-20 10 0 0 17 2 17 10 5 9 -13 10 -13 10 0 1 12 3 11 11 -3 6 -9 15 -14 21
-11 6 4 14 1 18 -6 5 -9 9 -8 13 3 4 11 -1 14 -19 12 -13 -1 -24 2 -24 8 0 5
9 7 20 4 11 -3 20 0 20 6 0 8 4 7 9 -2 6 -8 14 -10 22 -5 20 12 38 14 44 4 3
-5 -4 -7 -15 -5 -11 2 -18 0 -15 -5 6 -9 24 -8 42 3 6 4 15 2 19 -4 5 -8 3 -9
-6 -4 -9 5 -11 4 -6 -4 11 -17 26 -4 20 17 -5 15 -4 15 8 1 7 -9 19 -14 27
-11 8 3 11 0 7 -6 -3 -6 -2 -14 4 -17 6 -4 9 -1 8 6 -2 7 3 14 10 15 6 1 17 2
23 3 5 0 7 6 3 12 -4 8 0 8 15 0 14 -8 21 -8 21 -1 0 5 5 10 11 10 5 0 8 -3 6
-7 -3 -5 5 -8 18 -8 15 0 20 4 15 10 -6 7 -2 11 11 11 11 0 18 -5 15 -13 -3
-7 -1 -15 5 -18 5 -4 9 -3 8 2 -1 4 -1 15 0 23 1 13 2 13 11 0 6 -10 10 -11
10 -2 0 6 5 12 11 12 5 0 7 -6 3 -12 -4 -7 2 -5 14 6 20 17 22 17 28 2 3 -9
10 -16 15 -16 4 0 5 7 2 17 -4 11 -3 14 6 9 6 -4 19 -2 28 6 11 8 14 8 10 1
-5 -8 0 -11 13 -10 11 1 20 4 20 8 0 12 40 17 47 7 3 -7 1 -8 -5 -4 -7 4 -12
2 -12 -3 0 -17 18 -13 29 7 10 16 10 16 11 -1 0 -10 5 -15 10 -12 6 4 8 10 5
15 -3 5 -1 11 5 15 5 3 10 1 10 -4 0 -6 4 -11 10 -11 5 0 7 8 4 17 -5 15 -3
15 10 -1 14 -17 16 -18 16 -3 0 9 4 17 10 17 5 0 6 -8 3 -17 -6 -15 -5 -16 9
-3 9 8 13 19 10 24 -3 5 0 6 7 2 6 -4 18 -3 26 4 10 8 15 8 21 -1 5 -8 3 -9
-6 -4 -9 6 -11 4 -5 -5 6 -10 10 -10 19 3 8 10 17 12 28 6 11 -6 20 -3 29 9
13 16 13 16 -6 2 -18 -14 -19 -14 -7 2 13 17 34 15 60 -5 10 -8 12 -7 10 4 -2
8 3 13 10 12 6 -2 12 2 12 7 0 13 -13 13 -27 -1 -7 -7 -12 -6 -17 6 -3 9 -2
13 4 10 5 -3 18 -1 28 4 13 7 23 6 32 -2 10 -9 11 -9 6 1 -4 6 -2 12 3 12 6 0
11 -4 11 -10 0 -5 5 -10 11 -10 5 0 8 3 6 8 -3 4 7 16 21 26 14 11 22 14 18 8
-4 -7 -1 -12 8 -12 9 0 19 0 24 0 4 0 8 5 8 10 1 6 2 16 3 23 1 6 9 1 17 -13
9 -14 13 -17 10 -7 -9 28 2 39 27 25 19 -10 21 -9 9 4 -10 13 -10 18 -1 24 7
4 9 3 6 -3 -4 -6 0 -14 9 -17 8 -3 13 -2 10 2 -2 4 -1 14 5 22 7 13 9 12 9 -1
0 -12 8 -16 24 -15 13 0 22 5 19 9 -3 5 -11 6 -19 3 -8 -3 -14 -1 -14 4 0 6 7
10 15 10 8 0 15 5 15 10 0 6 5 10 11 10 6 0 8 -7 5 -17 -6 -16 -6 -16 12 0 10
9 21 15 24 12 2 -3 5 2 5 10 0 11 -4 12 -13 4 -7 -6 -14 -6 -18 -1 -3 6 3 12
15 15 13 3 22 0 26 -10 5 -12 7 -12 14 -1 5 7 9 18 9 23 0 6 -5 3 -10 -5 -7
-10 -10 -11 -10 -2 0 7 11 17 25 24 13 6 22 14 20 19 -7 10 22 5 32 -6 4 -4 3
-5 -4 -1 -6 3 -14 2 -17 -2 -7 -12 41 -9 51 2 4 5 3 6 -4 2 -21 -12 -24 13 -3
34 24 24 42 26 34 5 -4 -8 -1 -15 7 -15 7 0 9 3 6 7 -4 3 -2 12 4 19 7 8 6 14
-2 20 -8 5 -9 3 -4 -7 8 -12 6 -12 -8 0 -22 17 -22 17 8 17 14 0 25 -4 25 -10
0 -5 3 -6 6 -3 4 4 2 13 -5 21 -9 11 -8 15 4 20 9 3 14 10 11 15 -3 5 2 8 11
7 10 0 18 4 18 11 0 7 8 22 18 33 10 12 23 32 29 45 6 14 15 22 19 19 5 -3 9
2 9 10 0 10 6 13 18 10 16 -5 16 -5 -1 9 -16 13 -16 15 -2 21 9 3 14 10 11 15
-3 5 2 15 11 22 12 10 14 10 9 2 -4 -7 -3 -13 2 -13 6 0 13 7 16 16 3 8 2 12
-4 9 -6 -3 -10 -1 -10 5 0 6 -4 9 -8 6 -5 -3 -9 1 -9 9 0 8 4 12 8 9 4 -2 6
11 5 31 -2 19 0 33 4 30 5 -3 12 0 16 6 4 8 9 7 16 -2 8 -11 9 -11 5 1 -2 8
-9 16 -15 16 -7 1 -18 2 -24 3 -10 1 -9 4 1 10 8 5 20 7 28 4 7 -3 13 0 13 7
0 6 -4 9 -8 6 -4 -2 -14 -1 -22 5 -12 7 -9 9 10 10 16 1 19 3 8 6 -9 2 -19 10
-21 18 -6 14 9 15 33 0 13 -8 13 -7 1 8 -7 9 -17 14 -22 11 -5 -3 -9 0 -9 5 0
6 5 11 11 11 6 0 4 7 -5 15 -18 19 -23 19 -23 0 0 -8 4 -12 9 -9 15 10 8 -3
-9 -17 -10 -7 -15 -9 -11 -5 4 5 3 15 -3 23 -6 7 -8 13 -3 13 5 0 2 5 -6 11
-12 9 -12 10 4 5 14 -5 17 -2 12 10 -3 8 -6 19 -6 22 0 4 -5 0 -10 -8 -7 -11
-10 -11 -10 -2 0 7 10 17 23 23 20 8 19 9 -6 4 -16 -3 -26 -2 -23 3 6 11 -4
25 -34 45 -13 9 -19 17 -12 17 18 0 27 -4 25 -12 -2 -4 6 -10 17 -13 11 -4 18
-10 16 -14 -3 -4 2 -8 10 -8 9 0 4 10 -15 29 -17 16 -29 35 -27 41 1 7 1 9 -1
5 -3 -5 -10 -8 -16 -8 -6 0 28 40 77 89 l89 89 56 -20 c74 -26 221 -28 311 -4
175 47 330 167 400 309 82 167 58 328 -81 534 -49 75 -107 149 -157 203 -19
21 -22 32 -17 65 18 116 25 216 25 365 0 598 -238 1154 -670 1566 -218 208
-437 349 -710 457 -310 122 -635 170 -979 145z m1639 -2225 c-11 -17 -11 -17
-6 0 3 10 6 24 7 30 0 9 2 9 5 0 3 -7 0 -20 -6 -30z m-2940 22 c0 -2 -10 -10
-22 -16 -21 -11 -22 -11 -9 4 13 16 31 23 31 12z m2985 -5 c3 -5 -1 -10 -9
-10 -9 0 -16 5 -16 10 0 6 4 10 9 10 6 0 13 -4 16 -10z m80 -49 c3 -5 2 -12
-3 -15 -5 -3 -9 1 -9 9 0 17 3 19 12 6z m-95 -11 c0 -5 -2 -10 -4 -10 -3 0 -8
5 -11 10 -3 6 -1 10 4 10 6 0 11 -4 11 -10z m-34 -15 c-1 -8 -5 -17 -8 -21 -5
-4 -4 16 1 34 3 9 9 -1 7 -13z m-2899 -24 c0 -11 -5 -18 -9 -15 -4 3 -5 11 -1
19 7 21 12 19 10 -4z m3087 10 c3 -5 -1 -11 -9 -14 -9 -4 -12 -1 -8 9 6 16 10
17 17 5z m-40 -17 c3 -8 2 -12 -4 -9 -6 3 -10 10 -10 16 0 14 7 11 14 -7z
m-3254 -8 c0 -11 -19 -15 -25 -6 -3 5 1 10 9 10 9 0 16 -2 16 -4z m60 -6 c0
-5 -5 -10 -11 -10 -5 0 -7 5 -4 10 3 6 8 10 11 10 2 0 4 -4 4 -10z m3050 6 c0
-3 -4 -8 -10 -11 -5 -3 -10 -1 -10 4 0 6 5 11 10 11 6 0 10 -2 10 -4z m-3170
-36 c-24 -15 -36 -11 -14 4 10 8 21 12 24 10 2 -3 -2 -9 -10 -14z m3317 5 c5
-4 2 -5 -4 -1 -8 4 -13 2 -13 -5 0 -8 -3 -9 -13 0 -8 6 -18 7 -22 3 -5 -4 -5
-2 -2 4 7 12 43 12 54 -1z m115 0 c10 -4 15 -12 12 -17 -4 -6 -10 -5 -14 3 -5
7 -16 14 -25 15 -9 1 -20 5 -23 8 -7 8 27 2 50 -9z m-279 -10 c-3 -9 -8 -14
-10 -11 -3 3 -2 9 2 15 9 16 15 13 8 -4z m-3033 1 c0 -2 -7 -7 -16 -10 -8 -3
-12 -2 -9 4 6 10 25 14 25 6z m54 -4 c3 -5 -1 -9 -9 -9 -8 0 -12 4 -9 9 3 4 7
8 9 8 2 0 6 -4 9 -8z m3221 -13 c-4 -5 -14 -8 -23 -8 -15 1 -15 2 1 6 9 2 14
9 11 15 -4 7 -2 8 5 4 6 -4 9 -12 6 -17z m-3340 3 c-3 -3 3 -10 12 -17 13 -10
14 -13 2 -20 -8 -5 -11 -5 -7 0 4 4 -2 15 -14 25 -17 14 -18 17 -5 17 10 0 15
-3 12 -5z m79 -7 c-4 -8 -11 -15 -16 -15 -6 0 -5 6 2 15 7 8 14 15 16 15 2 0
1 -7 -2 -15z m3123 0 c0 -8 -4 -12 -9 -9 -5 3 -6 10 -3 15 9 13 12 11 12 -6z
m-3300 -15 c-2 -11 -7 -23 -12 -27 -4 -5 -5 -2 -1 5 14 23 -18 12 -41 -15 -13
-14 -23 -21 -23 -15 0 9 68 72 77 72 2 0 2 -9 0 -20z m258 2 c-3 -3 -11 0 -18
7 -9 10 -8 11 6 5 10 -3 15 -9 12 -12z m42 3 c0 -8 -4 -12 -9 -9 -5 3 -6 10
-3 15 9 13 12 11 12 -6z m20 -7 c-3 -8 -6 -5 -6 6 -1 11 2 17 5 13 3 -3 4 -12
1 -19z m2947 14 c3 -5 -1 -9 -9 -9 -8 0 -12 4 -9 9 3 4 7 8 9 8 2 0 6 -4 9 -8z
m256 -3 c13 -9 12 -10 -2 -5 -10 3 -22 -2 -27 -12 -12 -19 -14 -12 -5 12 7 19
14 20 34 5z m-50 -3 c0 -2 -7 -7 -16 -10 -8 -3 -12 -2 -9 4 6 10 25 14 25 6z
m-110 -16 c0 -5 -5 -10 -11 -10 -5 0 -7 5 -4 10 3 6 8 10 11 10 2 0 4 -4 4
-10z m57 4 c-3 -3 -12 -4 -19 -1 -8 3 -5 6 6 6 11 1 17 -2 13 -5z m-3356 -17
c-1 -12 -15 -9 -19 4 -3 6 1 10 8 8 6 -3 11 -8 11 -12z m3435 -15 c-17 -16
-18 -16 -5 5 7 12 15 20 18 17 3 -2 -3 -12 -13 -22z m-3456 -6 c11 -15 12 -18
1 -12 -10 7 -12 4 -7 -12 4 -11 2 -23 -3 -27 -7 -4 -8 1 -4 11 4 11 3 15 -5
10 -6 -3 -14 -1 -18 5 -4 8 -3 9 4 5 12 -7 16 5 12 34 -1 8 0 13 2 10 2 -3 10
-14 18 -24z m65 6 c-3 -3 -11 0 -18 7 -9 10 -8 11 6 5 10 -3 15 -9 12 -12z
m109 6 c-3 -4 -11 -5 -19 -1 -21 7 -19 12 4 10 11 0 18 -5 15 -9z m40 4 c3 -5
-1 -9 -9 -9 -8 0 -12 4 -9 9 3 4 7 8 9 8 2 0 6 -4 9 -8z m2998 1 c-6 -2 -9
-10 -6 -15 4 -7 2 -8 -5 -4 -13 9 -5 26 12 25 9 0 8 -2 -1 -6z m131 -11 c-10
-10 -20 -17 -22 -16 -6 5 20 34 30 34 5 0 1 -8 -8 -18z m40 0 c-10 -10 -20
-17 -22 -16 -6 5 20 34 30 34 5 0 1 -8 -8 -18z m153 -4 c10 -12 14 -18 7 -15
-6 4 -14 0 -17 -10 -3 -11 -4 -8 -3 7 1 15 -3 24 -10 23 -7 -2 -13 2 -13 7 0
16 16 11 36 -12z m-3487 -26 c-1 -15 -2 -15 -6 1 -2 9 -9 14 -15 11 -7 -4 -8
-2 -4 5 10 15 26 4 25 -17z m94 8 c-3 -11 -9 -20 -15 -20 -5 0 -4 9 2 20 6 11
12 20 14 20 2 0 2 -9 -1 -20z m3017 -11 c0 -10 -4 -19 -8 -19 -5 0 -8 -16 -7
-35 2 -19 0 -37 -4 -39 -8 -5 -8 65 1 79 3 6 4 18 3 28 -2 9 1 15 6 11 5 -3 9
-14 9 -25z m85 21 c3 -6 -1 -7 -9 -4 -18 7 -21 14 -7 14 6 0 13 -4 16 -10z
m48 -7 c-5 -12 -3 -14 8 -8 11 6 12 5 2 -5 -7 -8 -16 -11 -19 -7 -7 6 2 37 10
37 3 0 2 -7 -1 -17z m108 -20 c-11 -16 -11 -15 -5 6 4 17 3 21 -6 16 -9 -6
-11 -4 -5 4 5 9 11 9 17 3 7 -7 6 -16 -1 -29z m74 27 c-3 -5 -1 -10 4 -10 13
0 14 -27 2 -35 -5 -3 -13 0 -17 6 -4 8 -3 9 4 5 7 -4 12 -3 12 3 0 5 -5 13
-10 16 -10 6 -5 25 6 25 3 0 2 -4 -1 -10z m-3218 -22 c-3 -8 -6 -5 -6 6 -1 11
2 17 5 13 3 -3 4 -12 1 -19z m3084 -1 c-10 -9 -11 -8 -5 6 3 10 9 15 12 12 3
-3 0 -11 -7 -18z m-3491 -2 c-10 -12 -10 -15 0 -15 8 0 11 -3 7 -6 -3 -3 -11
-3 -17 1 -8 5 -8 11 1 21 6 8 14 14 16 14 3 0 0 -7 -7 -15z m50 0 c-7 -8 -9
-15 -4 -15 4 0 -3 -11 -16 -25 -25 -27 -21 -32 12 -14 11 6 22 8 25 5 3 -3 -7
-10 -22 -16 -26 -10 -27 -12 -10 -24 10 -7 15 -19 12 -27 -4 -10 -6 -8 -6 5
-1 15 -4 16 -16 6 -13 -11 -14 -10 -9 5 5 13 4 16 -4 11 -7 -4 -10 -2 -6 7 6
16 -28 19 -38 3 -5 -7 -11 -7 -20 3 -8 9 -9 11 -1 7 15 -8 27 10 13 19 -6 4
-17 1 -25 -5 -8 -7 -15 -10 -15 -6 0 3 11 13 25 22 24 15 27 15 44 0 16 -15
19 -15 36 4 10 11 15 20 10 20 -4 0 -2 7 5 15 7 8 15 15 17 15 3 0 0 -7 -7
-15z m53 -8 c4 3 7 4 7 0 0 -18 -21 -14 -30 5 -10 21 -10 21 3 6 8 -10 17 -15
20 -11z m137 3 c-12 -23 -16 -24 -26 -8 -4 7 -3 8 4 4 7 -4 12 -1 12 8 0 9 5
16 10 16 7 0 7 -6 0 -20z m142 -12 c-8 -8 -9 -4 -5 13 4 13 8 18 11 10 2 -7
-1 -18 -6 -23z m236 15 c12 -3 22 -8 22 -12 0 -4 8 -7 18 -7 15 -1 186 -48
222 -61 8 -3 22 -7 30 -8 8 -1 85 -16 170 -33 254 -51 426 -66 770 -66 182 -1
355 4 430 12 245 25 536 83 742 148 92 30 112 33 126 22 13 -11 15 -11 9 5 -3
9 -2 17 3 17 6 0 9 -81 8 -204 l-1 -205 -61 -49 c-81 -65 -111 -84 -121 -75
-4 5 -5 3 -1 -4 9 -16 -27 -35 -51 -27 -14 4 -15 4 -4 -4 26 -19 -196 -128
-379 -186 -219 -69 -425 -97 -715 -97 -291 0 -495 31 -730 109 -124 40 -351
152 -348 170 2 6 -3 9 -10 6 -13 -5 -160 98 -186 130 -12 14 -13 21 -2 38 7
11 8 17 2 14 -7 -5 -10 57 -10 190 l1 196 21 -7 c12 -4 32 -9 45 -12z m2742 7
c0 -5 -5 -10 -11 -10 -5 0 -7 5 -4 10 3 6 8 10 11 10 2 0 4 -4 4 -10z m24 -12
c-5 -7 0 -9 13 -6 13 4 27 -2 37 -13 9 -11 12 -19 6 -19 -5 0 -13 6 -17 13 -4
6 -17 12 -27 12 -11 0 -20 8 -22 18 -1 9 2 15 7 11 5 -3 6 -10 3 -16z m347 5
c13 -16 12 -17 -3 -4 -17 13 -22 21 -14 21 2 0 10 -8 17 -17z m-3547 -9 c3 -8
2 -12 -4 -9 -6 3 -10 10 -10 16 0 14 7 11 14 -7z m158 2 c7 4 8 2 4 -5 -9 -13
-26 -5 -25 12 0 9 2 8 6 -1 2 -6 10 -9 15 -6z m3242 -2 c3 -8 2 -12 -4 -9 -6
3 -10 10 -10 16 0 14 7 11 14 -7z m-3146 -25 c-1 -31 -1 -31 -14 -8 -12 24
-10 39 6 39 5 0 8 -14 8 -31z m3027 21 c-8 -13 1 -13 26 0 10 6 19 8 19 6 0
-10 -41 -27 -50 -21 -10 6 -5 25 6 25 3 0 2 -4 -1 -10z m55 -15 c-7 -8 -16
-15 -21 -15 -5 0 -1 8 9 18 20 22 31 19 12 -3z m197 -23 c4 2 8 -6 9 -17 1
-16 0 -16 -3 -2 -3 9 -8 15 -13 12 -4 -3 -15 8 -24 23 l-17 27 20 -23 c11 -13
24 -22 28 -20z m32 30 c13 10 14 10 4 -1 -6 -7 -9 -21 -6 -30 4 -9 4 -14 2
-11 -25 29 -41 53 -29 43 10 -10 17 -10 29 -1z m-3571 -23 c3 -11 2 -11 -7 1
-10 13 -12 13 -21 0 -5 -8 -10 -10 -10 -4 0 27 31 30 38 3z m147 11 c3 -6 -1
-7 -9 -4 -18 7 -21 14 -7 14 6 0 13 -4 16 -10z m40 -11 c-4 -5 -12 -9 -18 -8
-9 0 -8 2 1 6 6 2 9 10 6 15 -4 7 -2 8 5 4 6 -4 9 -12 6 -17z m41 9 c4 -7 4
-10 -1 -6 -4 4 -14 0 -22 -10 -13 -15 -13 -15 -3 6 12 25 16 27 26 10z m2956
-6 c-3 -10 -1 -13 6 -8 6 3 14 1 18 -6 4 -7 4 -10 -1 -6 -4 4 -14 0 -22 -10
-12 -16 -13 -16 -6 2 4 13 3 17 -5 12 -8 -5 -10 -1 -5 10 5 13 3 15 -7 9 -8
-5 -11 -4 -7 2 10 16 36 11 29 -5z m216 10 c8 -6 2 -9 -18 -9 -20 0 -26 3 -18
9 7 4 15 8 18 8 3 0 11 -4 18 -8z m82 4 c0 -2 -7 -7 -16 -10 -8 -3 -12 -2 -9
4 6 10 25 14 25 6z m-3375 -16 c3 -5 1 -10 -4 -10 -6 0 -11 5 -11 10 0 6 2 10
4 10 3 0 8 -4 11 -10z m3515 -20 c0 -15 -5 -12 -26 11 -19 22 -19 22 4 10 12
-6 22 -16 22 -21z m-3670 10 c0 -5 -7 -6 -17 -3 -12 5 -14 3 -8 -8 8 -12 6
-12 -8 0 -21 17 -22 16 8 19 14 1 25 -3 25 -8z m90 6 c0 -2 -7 -6 -15 -10 -8
-3 -15 -1 -15 4 0 6 7 10 15 10 8 0 15 -2 15 -4z m3208 -21 c-3 -3 -9 2 -12
12 -6 14 -5 15 5 6 7 -7 10 -15 7 -18z m264 -31 c-17 -13 -42 -8 -42 8 0 5 -4
6 -10 3 -6 -3 -7 1 -4 9 3 9 11 16 17 16 6 0 7 -3 4 -7 -9 -9 13 -34 24 -27 5
3 9 10 9 15 0 6 -4 8 -8 5 -4 -2 -9 4 -9 15 -2 18 -1 18 16 -3 17 -20 17 -23
3 -34z m-3275 24 c-3 -8 -6 -5 -6 6 -1 11 2 17 5 13 3 -3 4 -12 1 -19z m3115
15 c-6 -2 -10 -8 -8 -12 3 -4 -1 -8 -8 -8 -8 0 -12 6 -9 14 3 7 13 13 22 12
10 0 11 -2 3 -6z m36 -18 c-3 -3 -9 2 -12 12 -6 14 -5 15 5 6 7 -7 10 -15 7
-18z m42 15 c0 -5 -7 -7 -15 -4 -8 4 -15 8 -15 10 0 2 7 4 15 4 8 0 15 -4 15
-10z m-3522 -25 c-3 -3 -13 -2 -22 1 -14 5 -15 9 -4 15 13 8 36 -6 26 -16z
m82 18 c0 -5 -5 -15 -10 -23 -7 -12 -9 -10 -7 8 1 19 17 33 17 15z m60 -3 c0
-5 -4 -10 -10 -10 -5 0 -10 5 -10 10 0 6 5 10 10 10 6 0 10 -4 10 -10z m54 -5
c11 -8 16 -15 10 -15 -5 0 -18 7 -28 15 -11 8 -16 15 -10 15 5 0 18 -7 28 -15z
m66 0 c0 -8 -2 -15 -4 -15 -2 0 -6 7 -10 15 -3 8 -1 15 4 15 6 0 10 -7 10 -15z
m3057 -5 c1 -11 -2 -20 -7 -20 -6 0 -7 17 -1 38 3 8 7 -1 8 -18z m65 13 c-6
-2 -10 -9 -7 -13 3 -5 0 -12 -6 -16 -8 -4 -9 -3 -5 4 4 7 1 12 -6 12 -9 0 -9
3 2 10 8 5 20 9 25 9 6 0 4 -3 -3 -6z m-3332 -7 c0 -2 -7 -7 -16 -10 -8 -3
-12 -2 -9 4 6 10 25 14 25 6z m244 -12 c3 -8 2 -12 -4 -9 -6 3 -10 10 -10 16
0 14 7 11 14 -7z m3386 12 c0 -3 -4 -8 -10 -11 -5 -3 -10 -1 -10 4 0 6 5 11
10 11 6 0 10 -2 10 -4z m-3550 -23 c0 -3 -9 -3 -20 0 -11 3 -20 1 -20 -3 0 -5
-3 -17 -7 -27 -6 -17 -5 -17 13 -1 19 17 20 16 21 -5 0 -12 -1 -16 -4 -9 -3 6
-9 9 -15 6 -7 -4 -2 -14 12 -24 17 -13 20 -19 10 -25 -9 -5 -11 -4 -6 3 9 15
-6 16 -21 1 -7 -7 -10 -4 -9 12 0 12 -5 24 -12 26 -8 3 -10 -1 -6 -14 5 -13 2
-12 -10 5 -10 12 -15 26 -12 31 4 5 0 12 -6 14 -9 4 -10 6 -1 6 6 1 15 -3 18
-9 10 -16 22 -12 28 9 3 14 11 18 26 14 12 -3 21 -8 21 -10z m110 7 c0 -5 -2
-10 -4 -10 -3 0 -8 5 -11 10 -3 6 -1 10 4 10 6 0 11 -4 11 -10z m2981 -4 c-7
-9 -8 -17 -2 -20 5 -3 11 -1 13 6 2 6 4 -9 4 -33 -1 -27 -6 -46 -12 -46 -6 0
-11 16 -10 36 1 27 -3 35 -14 33 -11 -3 -10 2 4 17 21 23 35 29 17 7z m177
-12 c0 -17 -3 -22 -8 -13 -5 6 -6 18 -3 26 8 19 11 16 11 -13z m102 -31 c0 -3
-8 1 -17 8 -15 12 -16 12 -10 -4 4 -11 3 -16 -3 -12 -6 3 -10 2 -10 -4 0 -5 6
-11 13 -14 9 -3 9 -8 -2 -18 -8 -8 -11 -9 -7 -2 13 23 -17 26 -36 3 -10 -12
-18 -19 -18 -15 0 4 13 23 30 41 27 31 33 73 7 57 -6 -3 -7 -1 -3 6 6 8 15 4
32 -14 13 -14 24 -29 24 -32z m-3145 -17 c2 -36 -2 -54 -9 -53 -6 1 -9 -7 -8
-18 2 -11 2 -18 0 -15 -33 44 -33 44 -19 35 11 -6 13 -4 8 8 -3 10 -2 17 4 17
6 0 8 4 4 9 -3 5 0 13 5 16 7 5 5 12 -7 22 -10 8 -12 12 -5 8 8 -4 12 2 12 16
0 46 13 7 15 -45z m3173 51 c14 4 14 3 2 -5 -16 -12 -30 -7 -29 11 0 9 2 9 5
0 3 -7 13 -9 22 -6z m-3509 0 c-2 -1 -13 -9 -24 -17 -19 -14 -19 -14 -6 3 7 9
18 17 24 17 6 0 8 -1 6 -3z m166 -7 c3 -6 -1 -7 -9 -4 -18 7 -21 14 -7 14 6 0
13 -4 16 -10z m35 6 c0 -3 -4 -8 -10 -11 -5 -3 -10 -1 -10 4 0 6 5 11 10 11 6
0 10 -2 10 -4z m40 -6 c0 -5 -5 -10 -11 -10 -5 0 -7 5 -4 10 3 6 8 10 11 10 2
0 4 -4 4 -10z m35 -8 c-3 -3 -11 0 -18 7 -9 10 -8 11 6 5 10 -3 15 -9 12 -12z
m2995 14 c0 -2 -7 -7 -16 -10 -8 -3 -12 -2 -9 4 6 10 25 14 25 6z m62 -16 c-2
-8 3 -10 15 -6 14 6 16 5 6 -5 -10 -10 -16 -10 -25 -1 -7 7 -8 12 -2 12 5 0 2
5 -6 11 -13 9 -13 10 0 6 8 -2 14 -10 12 -17z m278 16 c0 -2 -7 -7 -16 -10 -8
-3 -12 -2 -9 4 6 10 25 14 25 6z m-315 -16 c3 -5 1 -10 -4 -10 -6 0 -11 5 -11
10 0 6 2 10 4 10 3 0 8 -4 11 -10z m127 3 c-6 -2 -9 -10 -6 -15 4 -7 2 -8 -4
-4 -18 11 -14 26 6 25 10 0 12 -3 4 -6z m131 0 c3 -5 -6 -9 -20 -10 -19 -1
-22 1 -12 8 17 11 26 11 32 2z m-3410 -38 c-15 -19 -19 -20 -26 -8 -5 8 -6 17
-3 20 3 4 6 1 6 -6 0 -9 4 -9 14 1 8 7 11 17 8 22 -3 5 0 6 6 2 9 -5 7 -14 -5
-31z m72 25 c3 -5 1 -10 -4 -10 -6 0 -11 5 -11 10 0 6 2 10 4 10 3 0 8 -4 11
-10z m-21 -15 c3 -8 1 -15 -4 -15 -6 0 -10 7 -10 15 0 8 2 15 4 15 2 0 6 -7
10 -15z m70 0 c11 -8 16 -15 10 -15 -5 0 -18 7 -28 15 -11 8 -16 15 -10 15 5
0 18 -7 28 -15z m31 5 c3 -6 -1 -7 -9 -4 -18 7 -21 14 -7 14 6 0 13 -4 16 -10z
m3105 -10 c0 -5 -4 -10 -10 -10 -5 0 -10 5 -10 10 0 6 5 10 10 10 6 0 10 -4
10 -10z m-3210 -26 c0 -2 -7 -4 -15 -4 -8 0 -15 4 -15 10 0 5 7 7 15 4 8 -4
15 -8 15 -10z m100 -4 c-6 -11 -13 -20 -16 -20 -2 0 0 9 6 20 6 11 13 20 16
20 2 0 0 -9 -6 -20z m3017 14 c-3 -3 -12 -4 -19 -1 -8 3 -5 6 6 6 11 1 17 -2
13 -5z m31 -19 c-3 -3 -9 2 -12 12 -6 14 -5 15 5 6 7 -7 10 -15 7 -18z m-3191
-17 c-3 -7 -5 -2 -5 12 0 14 2 19 5 13 2 -7 2 -19 0 -25z m65 10 c-7 -7 -12
-8 -12 -2 0 14 12 26 19 19 2 -3 -1 -11 -7 -17z m47 -23 c0 -5 -4 -3 -9 5 -5
8 -9 22 -9 30 0 16 17 -16 18 -35z m3118 26 c0 -11 -5 -18 -9 -15 -4 3 -5 11
-1 19 7 21 12 19 10 -4z m-97 -5 c0 -8 -10 -22 -22 -30 -12 -9 -20 -16 -18
-17 3 0 13 -2 23 -4 9 -2 17 3 17 11 0 8 5 14 10 14 7 0 7 -7 0 -20 -6 -11
-15 -18 -20 -15 -5 3 -11 1 -15 -5 -4 -6 -11 -8 -16 -4 -5 3 -7 10 -4 15 4 5
2 9 -4 9 -5 0 -9 9 -8 20 1 11 5 20 10 20 5 0 7 -7 4 -14 -4 -10 -1 -13 8 -9
8 3 12 10 8 16 -4 6 -1 7 7 2 10 -6 12 -4 7 8 -3 10 -2 17 3 17 6 0 10 -6 10
-14z m33 -3 c-5 -12 -3 -14 7 -8 9 5 11 4 6 -4 -4 -6 -12 -9 -17 -6 -12 8 -12
35 1 35 5 0 6 -7 3 -17z m-138 -4 c-4 -6 0 -9 11 -7 13 2 18 -2 16 -14 -1 -9
2 -19 8 -23 16 -10 12 -35 -6 -35 -11 0 -13 6 -9 20 4 13 -1 25 -14 36 -17 15
-20 34 -5 34 3 0 2 -5 -1 -11z m-2982 -17 c-2 -7 1 -12 6 -12 5 0 18 -3 28 -7
16 -6 16 -5 4 10 -8 10 -11 20 -8 23 3 3 10 -4 17 -15 12 -23 12 -23 -29 -25
-23 -1 -28 3 -25 17 2 13 -1 17 -11 13 -8 -3 -15 -1 -15 5 0 6 8 9 18 7 9 -2
16 -10 15 -16z m3162 -3 c-4 -5 -12 -9 -18 -8 -9 0 -8 2 1 6 6 2 9 10 6 15 -4
7 -2 8 5 4 6 -4 9 -12 6 -17z m-3061 -7 c2 -4 0 -14 -6 -22 -8 -12 -9 -12 -5
2 3 9 1 19 -6 22 -9 3 -9 5 0 5 6 1 14 -3 17 -7z m32 -38 c-21 -15 -20 -25 2
-18 14 5 14 4 2 -4 -18 -13 -29 -7 -27 16 0 10 9 18 20 18 16 0 17 -2 3 -12z
m-76 0 c0 -8 -19 -13 -24 -6 -3 5 1 9 9 9 8 0 15 -2 15 -3z m2927 -46 c-3 -8
-6 -5 -6 6 -1 11 2 17 5 13 3 -3 4 -12 1 -19z m-2921 -1070 c4 -7 3 -8 -4 -4
-8 4 -12 0 -12 -11 0 -15 -2 -16 -10 -3 -6 9 -5 17 3 22 15 10 15 10 23 -4z
m-41 -328 c3 -6 -1 -7 -9 -4 -18 7 -21 14 -7 14 6 0 13 -4 16 -10z m5 -30 c0
-5 -2 -10 -4 -10 -3 0 -8 5 -11 10 -3 6 -1 10 4 10 6 0 11 -4 11 -10z m2524
-456 c3 -8 2 -12 -4 -9 -6 3 -10 10 -10 16 0 14 7 11 14 -7z m-804 -162 c0 -5
-7 -9 -15 -9 -8 0 -12 4 -9 9 7 10 24 10 24 0z"/>
<path d="M601 2397 c2 -1 13 -9 24 -17 19 -14 19 -14 6 3 -7 9 -18 17 -24 17
-6 0 -8 -1 -6 -3z"/>
<path d="M1207 2433 c-10 -21 0 -38 21 -37 12 1 22 -3 22 -8 0 -5 10 -6 21 -3
16 6 20 4 14 -6 -5 -8 -5 -11 0 -7 4 4 15 2 23 -5 13 -10 14 -9 7 2 -6 11 -4
13 8 8 10 -4 17 -2 17 4 0 7 -9 9 -21 6 -16 -4 -19 -2 -15 10 4 11 2 13 -9 10
-8 -4 -17 -2 -21 4 -3 6 -12 8 -20 5 -8 -3 -14 0 -14 7 0 8 -4 6 -10 -3 -9
-13 -14 -7 -11 13 0 4 -1 7 -3 7 -3 0 -7 -3 -9 -7z"/>
<path d="M3750 2420 c0 -4 -6 -7 -12 -8 -27 -1 -62 -12 -71 -21 -7 -7 -2 -9
14 -8 13 0 27 5 30 10 4 5 17 11 30 12 37 4 39 4 39 13 0 5 -7 9 -15 9 -8 0
-15 -3 -15 -7z"/>
<path d="M3785 2058 c-5 -5 -25 -22 -44 -37 -19 -15 -30 -30 -25 -33 11 -7 87
59 82 71 -2 5 -7 4 -13 -1z m-35 -42 c0 -2 -8 -10 -17 -17 -16 -13 -17 -12 -4
4 13 16 21 21 21 13z"/>
<path d="M1206 2041 c-3 -5 4 -21 15 -35 17 -21 24 -24 35 -15 19 16 18 30 -3
27 -10 -2 -17 2 -16 9 2 8 -4 10 -14 6 -11 -4 -14 -3 -9 5 4 7 5 12 2 12 -3 0
-7 -4 -10 -9z m49 -33 c5 4 5 1 1 -6 -6 -10 -11 -10 -22 -1 -8 6 -14 14 -14
16 0 3 6 0 13 -6 8 -6 18 -7 22 -3z"/>
<path d="M1266 1981 c-3 -5 1 -14 9 -21 12 -10 15 -10 15 1 0 12 2 12 9 1 7
-11 9 -10 14 3 4 9 3 13 -2 10 -5 -3 -12 -1 -16 5 -8 12 -22 13 -29 1z"/>
<path d="M3686 1974 c-3 -8 -11 -12 -17 -8 -8 4 -9 3 -5 -5 6 -9 12 -9 24 1
10 7 18 13 20 14 2 1 -1 5 -6 8 -6 3 -13 -1 -16 -10z"/>
<path d="M3636 1942 c-3 -5 1 -9 9 -9 8 0 15 4 15 9 0 4 -4 8 -9 8 -6 0 -12
-4 -15 -8z"/>
<path d="M991 1122 c-1 -12 22 -42 32 -42 2 0 4 7 4 15 0 8 -6 15 -13 15 -7 0
-15 6 -17 13 -4 9 -6 9 -6 -1z"/>
<path d="M4015 1100 c3 -5 8 -10 11 -10 2 0 4 5 4 10 0 6 -5 10 -11 10 -5 0
-7 -4 -4 -10z"/>
<path d="M939 1023 c12 -23 4 -30 -15 -15 -5 4 -1 -1 9 -10 11 -10 24 -18 31
-18 6 0 6 4 -3 9 -7 5 -9 10 -4 12 6 2 1 13 -10 24 -20 20 -20 20 -8 -2z"/>
<path d="M4057 993 c3 -7 6 -13 8 -13 2 0 5 6 8 13 3 8 -1 14 -8 14 -7 0 -11
-6 -8 -14z"/>
<path d="M920 909 c0 -5 -5 -7 -12 -3 -7 4 -8 3 -4 -5 6 -9 11 -9 22 0 17 14
18 19 4 19 -5 0 -10 -5 -10 -11z"/>
<path d="M874 889 c-3 -6 -2 -15 3 -20 5 -5 9 -1 9 11 0 23 -2 24 -12 9z"/>
<path d="M908 873 c7 -3 16 -2 19 1 4 3 -2 6 -13 5 -11 0 -14 -3 -6 -6z"/>
<path d="M4119 833 c-13 -16 -12 -17 4 -4 9 7 17 15 17 17 0 8 -8 3 -21 -13z"/>
<path d="M908 826 c-15 -11 -15 -13 5 -25 12 -8 19 -10 15 -6 -4 5 -3 14 3 21
14 17 -3 25 -23 10z"/>
<path d="M4069 807 c-6 -12 -3 -64 4 -60 5 3 6 11 3 19 -3 7 2 17 11 22 14 8
14 10 -1 15 -9 4 -16 5 -17 4z"/>
<path d="M4045 688 c5 -11 2 -18 -6 -18 -7 0 -10 -3 -7 -6 4 -3 19 2 35 11 15
9 21 14 12 11 -9 -2 -22 1 -28 7 -9 9 -11 8 -6 -5z"/>
<path d="M4002 610 c-24 -22 -29 -36 -10 -24 8 5 9 1 5 -12 -6 -14 -3 -13 11
5 11 14 24 21 31 17 7 -5 10 -2 9 6 -2 7 3 12 10 10 8 -1 11 2 7 9 -5 8 -10 8
-18 0 -14 -14 -30 -14 -22 -1 10 16 1 12 -23 -10z"/>
<path d="M994 575 c0 -14 4 -25 8 -25 4 0 7 9 5 20 -5 29 -13 33 -13 5z"/>
<path d="M3955 550 c-10 -11 -15 -20 -10 -20 4 0 2 -6 -4 -14 -9 -11 -9 -16 0
-22 7 -4 9 -3 5 4 -3 5 -2 12 3 14 5 1 11 10 13 18 2 8 7 18 13 22 5 4 7 9 4
13 -3 3 -14 -4 -24 -15z"/>
<path d="M1055 510 c-4 -6 -4 -14 -1 -17 3 -4 6 0 6 8 0 12 2 12 10 -1 5 -8
12 -12 15 -9 3 4 -1 12 -9 18 -10 9 -16 9 -21 1z"/>
<path d="M3905 490 c-3 -5 -5 -10 -3 -11 33 -8 38 -7 27 7 -14 17 -16 17 -24
4z"/>
<path d="M3750 360 c0 -5 5 -10 10 -10 6 0 10 5 10 10 0 6 -4 10 -10 10 -5 0
-10 -4 -10 -10z"/>
<path d="M3453 205 c0 -8 4 -12 9 -9 5 3 6 10 3 15 -9 13 -12 11 -12 -6z"/>
<path d="M1816 128 c3 -5 10 -6 15 -3 13 9 11 12 -6 12 -8 0 -12 -4 -9 -9z"/>
<path d="M3195 120 c3 -5 8 -10 11 -10 2 0 4 5 4 10 0 6 -5 10 -11 10 -5 0 -7
-4 -4 -10z"/>
<path d="M1955 101 c-3 -5 -2 -12 3 -15 5 -3 9 1 9 9 0 17 -3 19 -12 6z"/>
<path d="M2365 50 c10 -11 20 -20 23 -20 3 0 2 3 -1 7 -4 3 -1 13 6 22 11 14
10 14 -5 2 -12 -9 -18 -10 -18 -2 0 6 -5 11 -12 11 -6 0 -3 -9 7 -20z"/>
<path d="M2525 51 c-6 -11 13 -26 22 -17 4 3 1 6 -6 6 -7 0 -9 5 -6 10 3 6 4
10 1 10 -3 0 -7 -4 -11 -9z"/>
<path d="M2736 38 c3 -5 10 -6 15 -3 13 9 11 12 -6 12 -8 0 -12 -4 -9 -9z"/>
</g>
</svg>
